<svg width="40" height="40" viewBox="0 0 40 40" fill="none" xmlns="http://www.w3.org/2000/svg">
<g clip-path="url(#clip0_65_82)">
<path d="M20.0498 39.4117C9.37103 39.4117 0.711182 30.7518 0.711182 20.073C0.711182 9.39422 9.37103 0.734375 20.0498 0.734375C30.7286 0.734375 39.3885 9.39422 39.3885 20.073C39.3885 30.7518 30.7286 39.4117 20.0498 39.4117Z" fill="#0078B5"/>
<path d="M7.83557 15.714H12.9758V32.2563H7.83557V15.714ZM10.4076 7.49121C12.0514 7.49121 13.3858 8.82558 13.3858 10.4732C13.3858 12.1209 12.0514 13.4552 10.4076 13.4552C8.75995 13.4552 7.42559 12.1209 7.42559 10.4732C7.42172 8.82945 8.75609 7.49121 10.4076 7.49121Z" fill="white"/>
<path d="M16.2015 15.7141H21.1328V17.9729H21.2024C21.887 16.6733 23.5618 15.3003 26.068 15.3003C31.274 15.3003 32.2371 18.7271 32.2371 23.1789V32.2564H27.0969V24.2154C27.0969 22.2931 27.062 19.8294 24.4243 19.8294C21.7478 19.8294 21.3378 21.918 21.3378 24.0762V32.2603H16.2015V15.7141Z" fill="white"/>
</g>
<defs>
<clipPath id="clip0_65_82">
<rect width="38.6773" height="38.6773" fill="white" transform="translate(0.711182 0.734375)"/>
</clipPath>
</defs>
</svg>
