<svg width="39" height="40" viewBox="0 0 39 40" fill="none" xmlns="http://www.w3.org/2000/svg">
<g clip-path="url(#clip0_65_75)">
<path d="M19.4079 0.734375C30.0867 0.734375 38.7465 9.39422 38.7465 20.073C38.7465 30.7518 30.0867 39.4117 19.4079 39.4117C8.72906 39.4117 0.0692139 30.7518 0.0692139 20.073C0.0692139 9.39422 8.72906 0.734375 19.4079 0.734375Z" fill="#1DA1F2"/>
<path d="M14.9214 29.8971C24.0415 29.8971 29.0347 22.3395 29.0347 15.7837C29.0347 15.571 29.0347 15.3544 29.0193 15.1417C29.9901 14.4378 30.8294 13.5714 31.4946 12.5735C30.5896 12.9758 29.6304 13.2388 28.648 13.3548C29.6845 12.736 30.4581 11.7613 30.8294 10.6126C29.8547 11.1889 28.7911 11.5989 27.681 11.8155C25.8013 9.8197 22.6607 9.72301 20.665 11.5989C19.377 12.8095 18.8317 14.6157 19.23 16.3368C15.2424 16.1357 11.5255 14.2521 9.00764 11.1541C7.69261 13.4206 8.36173 16.3175 10.5431 17.7756C9.75411 17.7524 8.98057 17.5397 8.29211 17.1568C8.29211 17.1761 8.29211 17.1993 8.29211 17.2187C8.29211 19.578 9.95524 21.6124 12.272 22.0804C11.541 22.2777 10.7752 22.3086 10.0326 22.1655C10.6824 24.1844 12.5427 25.5691 14.6661 25.6116C12.9102 26.9924 10.7404 27.7428 8.50871 27.7389C8.1142 27.7389 7.71969 27.7157 7.32905 27.6654C9.5878 29.1235 12.2295 29.8971 14.9214 29.8932" fill="white"/>
</g>
<defs>
<clipPath id="clip0_65_75">
<rect width="38.6773" height="38.6773" fill="white" transform="translate(0.0692139 0.734375)"/>
</clipPath>
</defs>
</svg>
