<svg width="13" height="13" viewBox="0 0 13 13" fill="none" xmlns="http://www.w3.org/2000/svg">
<g clip-path="url(#clip0_65_69)">
<path d="M6.91628 10.6416C9.43203 10.6416 11.4714 8.60215 11.4714 6.08641C11.4714 3.57066 9.43203 1.53125 6.91628 1.53125C4.40054 1.53125 2.36112 3.57066 2.36112 6.08641C2.36112 8.60215 4.40054 10.6416 6.91628 10.6416Z" stroke="#003173" stroke-width="1.01226" stroke-linecap="round" stroke-linejoin="round"/>
<path d="M8.43467 7.22525C8.19566 7.54393 7.86243 7.77933 7.4822 7.89811C7.10196 8.01688 6.694 8.01301 6.31609 7.88704C5.93818 7.76107 5.60948 7.51939 5.37656 7.19623C5.14364 6.87307 5.0183 6.48481 5.0183 6.08646C5.0183 5.68811 5.14364 5.29985 5.37656 4.97669C5.60948 4.65353 5.93818 4.41185 6.31609 4.28587C6.694 4.1599 7.10196 4.15603 7.4822 4.27481C7.86243 4.39359 8.19566 4.62899 8.43467 4.94767" stroke="#003173" stroke-width="1.01226" stroke-linecap="round" stroke-linejoin="round"/>
</g>
<defs>
<clipPath id="clip0_65_69">
<rect width="12.1471" height="12.1471" fill="white" transform="translate(0.842651 0.0126953)"/>
</clipPath>
</defs>
</svg>
