<svg width="40" height="40" viewBox="0 0 40 40" fill="none" xmlns="http://www.w3.org/2000/svg">
<g clip-path="url(#clip0_65_89)">
<path d="M19.766 39.4117C9.08721 39.4117 0.427368 30.7518 0.427368 20.073C0.427368 9.39422 9.08721 0.734375 19.766 0.734375C30.4448 0.734375 39.1047 9.39422 39.1047 20.073C39.1047 30.7518 30.4448 39.4117 19.766 39.4117Z" fill="#3B579D"/>
<path d="M24.7941 39.4118V24.4321H29.8221L30.5763 18.5956H24.7941V14.8672C24.7941 13.177 25.262 12.0244 27.6871 12.0244H30.7774V6.80681C30.2437 6.73719 28.4065 6.57861 26.2715 6.57861C21.8159 6.57861 18.7643 9.29763 18.7643 14.2947V18.5995H13.7246V24.4359H18.7643V39.4118H24.7941Z" fill="white"/>
</g>
<defs>
<clipPath id="clip0_65_89">
<rect width="38.6773" height="38.6773" fill="white" transform="translate(0.427368 0.734375)"/>
</clipPath>
</defs>
</svg>
